<svg width="65" height="51" viewBox="0 0 130 102" fill="none" xmlns="http://www.w3.org/2000/svg">
<rect y="10" width="115" height="92" rx="10" fill="url(#paint0_linear_13_12)" fill-opacity="0.6"/>
<rect x="15" width="115" height="92" rx="10" fill="url(#paint1_linear_13_12)"/>
<path d="M33.92 66V24.72H54.08C56.76 24.72 58.94 25.12 60.62 25.92C62.34 26.68 63.6 27.84 64.4 29.4C65.24 30.92 65.66 32.82 65.66 35.1C65.66 36.98 65.4 38.58 64.88 39.9C64.36 41.22 63.58 42.28 62.54 43.08C61.5 43.88 60.16 44.46 58.52 44.82V45.06C60.36 45.42 61.82 46.02 62.9 46.86C64.02 47.66 64.82 48.74 65.3 50.1C65.78 51.42 66.02 53.08 66.02 55.08C66.02 56.72 65.82 58.22 65.42 59.58C65.02 60.9 64.36 62.04 63.44 63C62.56 63.96 61.36 64.7 59.84 65.22C58.32 65.74 56.42 66 54.14 66H33.92ZM42.44 59.16H51.32C52.92 59.16 54.18 59.02 55.1 58.74C56.02 58.42 56.64 57.88 56.96 57.12C57.32 56.32 57.5 55.22 57.5 53.82C57.5 52.46 57.32 51.4 56.96 50.64C56.6 49.84 55.96 49.28 55.04 48.96C54.16 48.64 52.92 48.48 51.32 48.48H42.44V59.16ZM42.44 41.76H51.02C52.54 41.76 53.74 41.6 54.62 41.28C55.54 40.96 56.18 40.44 56.54 39.72C56.94 38.96 57.14 37.98 57.14 36.78C57.14 35.38 56.96 34.32 56.6 33.6C56.28 32.84 55.68 32.32 54.8 32.04C53.96 31.76 52.7 31.62 51.02 31.62H42.44V41.76ZM74.4083 66V24.72H94.1483C96.8283 24.72 98.9683 25.02 100.568 25.62C102.208 26.22 103.448 27.1 104.288 28.26C105.128 29.38 105.688 30.76 105.968 32.4C106.288 34 106.448 35.8 106.448 37.8C106.448 39.2 106.328 40.7 106.088 42.3C105.848 43.9 105.308 45.38 104.468 46.74C103.668 48.1 102.388 49.1 100.628 49.74L107.228 66H98.2283L91.9883 49.44L94.0883 50.58C93.8083 50.7 93.4683 50.78 93.0683 50.82C92.7083 50.86 92.2883 50.88 91.8083 50.88H82.9283V66H74.4083ZM82.9283 43.98H90.7283C92.4083 43.98 93.7283 43.88 94.6883 43.68C95.6483 43.48 96.3683 43.16 96.8483 42.72C97.3283 42.24 97.6283 41.62 97.7483 40.86C97.8683 40.06 97.9283 39.04 97.9283 37.8C97.9283 36.56 97.8683 35.54 97.7483 34.74C97.6283 33.94 97.3483 33.32 96.9083 32.88C96.4683 32.44 95.7483 32.12 94.7483 31.92C93.7883 31.72 92.4683 31.62 90.7883 31.62H82.9283V43.98Z" fill="white"/>
<defs>
<linearGradient id="paint0_linear_13_12" x1="115" y1="10" x2="4.48245" y2="107.102" gradientUnits="userSpaceOnUse">
<stop stop-color="#047863"/>
<stop offset="1" stop-color="#06A261"/>
</linearGradient>
<linearGradient id="paint1_linear_13_12" x1="130" y1="3.90079e-06" x2="19.4825" y2="97.1018" gradientUnits="userSpaceOnUse">
<stop stop-color="#047863"/>
<stop offset="1" stop-color="#06A261"/>
</linearGradient>
</defs>
</svg>
