<svg width="129.33" height="124" viewBox="0 0 97 93" fill="none" xmlns="http://www.w3.org/2000/svg">
<g clip-path="url(#clip0_6_15)">
<path fill-rule="evenodd" clip-rule="evenodd" d="M63.0188 80.0004C70.2039 84.7271 78.4103 88.1762 86.5417 87.4925C89.528 87.2412 92.2928 86.1911 95.1299 85.1456C95.3791 85.0536 95.5026 84.7875 95.4052 84.553C95.3082 84.3179 95.026 84.2009 94.7774 84.2929C92.0264 85.3068 89.3498 86.3374 86.4565 86.5803C78.4479 87.2542 70.3821 83.7787 63.3295 79.0896C63.3533 79.0218 63.378 78.954 63.4027 78.8862C63.947 77.397 63.6016 75.2255 62.712 72.9438C61.4216 69.6314 59.016 66.0722 56.8529 64.1063C55.8554 63.199 54.8896 62.6292 54.1009 62.5094C53.4438 62.409 52.8798 62.5784 52.4444 63.0587C52.0862 63.4555 51.8814 63.9612 51.821 64.5539C51.7408 65.3451 51.9209 66.3057 52.2999 67.351C53.7021 71.2186 57.8216 76.3082 60.0551 77.9414C60.7547 78.4531 61.4662 78.9552 62.1905 79.4463C62.0461 79.8745 61.9065 80.2837 61.7353 80.6608C61.484 81.2149 61.1663 81.6966 60.63 82.044C59.6405 82.6849 58.454 82.7941 57.2408 82.6269C55.2983 82.3607 53.2895 81.3928 51.8081 80.5628C43.4761 75.8957 39.3625 67.7962 37.1499 59.6701C34.9115 51.452 34.6186 43.1964 33.9566 38.3271C33.9219 38.0767 33.6785 37.8988 33.4133 37.9315C33.1481 37.9629 32.9601 38.1928 32.9937 38.4432C33.6597 43.3392 33.9605 51.6371 36.2098 59.8975C38.4848 68.2498 42.7488 76.5526 51.3133 81.3505C52.8897 82.2325 55.0341 83.2488 57.1012 83.533C58.5628 83.7327 59.9868 83.5706 61.1782 82.7987C61.8729 82.3487 62.3024 81.7365 62.6269 81.0217C62.7724 80.7008 62.8971 80.3575 63.0188 80.0004ZM62.5052 78.533C62.9644 77.1974 62.5893 75.2799 61.8016 73.2595C60.5617 70.0766 58.258 66.6541 56.18 64.7644C55.4834 64.1318 54.8213 63.6732 54.2365 63.4833C53.814 63.3454 53.4448 63.3623 53.1826 63.6527C52.8808 63.9866 52.767 64.4427 52.7719 64.975C52.7769 65.5883 52.9421 66.2961 53.2182 67.0558C54.563 70.765 58.5074 75.6525 60.6488 77.218C61.2583 77.6631 61.8778 78.1023 62.5052 78.533Z" fill="white"/>
<path fill-rule="evenodd" clip-rule="evenodd" d="M95.9236 83.7351C95.8906 83.9441 95.7799 84.2102 95.6523 84.4898C95.3643 85.1224 94.9546 85.7977 94.7724 86.1242C94.6488 86.3481 94.7399 86.6249 94.9773 86.7424C95.2151 86.8599 95.5081 86.7726 95.6326 86.5487C95.8542 86.1498 96.3963 85.2543 96.6873 84.513C96.837 84.1317 96.9173 83.7811 96.901 83.5279C96.8843 83.2799 96.7774 83.1132 96.6253 82.9947C96.4648 82.8698 96.2166 82.7959 95.8847 82.8057C95.5209 82.8168 95.0014 82.9255 94.4302 82.9655C93.9511 82.9994 93.4277 82.985 92.9521 82.7597C92.7123 82.6459 92.4203 82.737 92.3007 82.9631C92.181 83.1879 92.277 83.4638 92.5163 83.5762C93.409 83.9998 94.4223 83.9078 95.223 83.7992C95.4613 83.7662 95.7572 83.7448 95.9236 83.7351Z" fill="white"/>
</g>
<path d="M9.20688 12V3.27273H10.2637V11.0625H14.3205V12H9.20688ZM18.5648 12.1364C17.9342 12.1364 17.3901 11.9972 16.9327 11.7188C16.4782 11.4375 16.1273 11.0455 15.8802 10.5426C15.6359 10.0369 15.5137 9.44886 15.5137 8.77841C15.5137 8.10795 15.6359 7.51705 15.8802 7.00568C16.1273 6.49148 16.4711 6.09091 16.9114 5.80398C17.3546 5.5142 17.8717 5.36932 18.4626 5.36932C18.8035 5.36932 19.1401 5.42614 19.4725 5.53977C19.8049 5.65341 20.1074 5.83807 20.3802 6.09375C20.6529 6.34659 20.8702 6.68182 21.0322 7.09943C21.1941 7.51705 21.2751 8.03125 21.2751 8.64205V9.06818H16.2296V8.19886H20.2523C20.2523 7.82955 20.1785 7.5 20.0307 7.21023C19.8859 6.92045 19.6785 6.69176 19.4086 6.52415C19.1415 6.35653 18.8262 6.27273 18.4626 6.27273C18.062 6.27273 17.7154 6.37216 17.4228 6.57102C17.133 6.76705 16.91 7.02273 16.7538 7.33807C16.5975 7.65341 16.5194 7.99148 16.5194 8.35227V8.93182C16.5194 9.42614 16.6046 9.84517 16.7751 10.1889C16.9484 10.5298 17.1884 10.7898 17.4952 10.9688C17.8021 11.1449 18.1586 11.233 18.5648 11.233C18.829 11.233 19.0677 11.196 19.2807 11.1222C19.4967 11.0455 19.6827 10.9318 19.839 10.7812C19.9952 10.6278 20.116 10.4375 20.2012 10.2102L21.1728 10.483C21.0705 10.8125 20.8986 11.1023 20.6572 11.3523C20.4157 11.5994 20.1174 11.7926 19.7623 11.9318C19.4072 12.0682 19.008 12.1364 18.5648 12.1364ZM24.731 12.1534C24.3163 12.1534 23.9398 12.0753 23.6018 11.919C23.2637 11.7599 22.9952 11.5312 22.7964 11.233C22.5975 10.9318 22.4981 10.5682 22.4981 10.142C22.4981 9.76705 22.5719 9.46307 22.7197 9.23011C22.8674 8.99432 23.0648 8.80966 23.312 8.67614C23.5592 8.54261 23.8319 8.44318 24.1302 8.37784C24.4313 8.30966 24.7339 8.25568 25.0378 8.21591C25.4356 8.16477 25.758 8.12642 26.0052 8.10085C26.2552 8.07244 26.437 8.02557 26.5506 7.96023C26.6671 7.89489 26.7253 7.78125 26.7253 7.61932V7.58523C26.7253 7.16477 26.6103 6.83807 26.3802 6.60511C26.1529 6.37216 25.8077 6.25568 25.3447 6.25568C24.8646 6.25568 24.4881 6.3608 24.2154 6.57102C23.9427 6.78125 23.7509 7.00568 23.6401 7.24432L22.6856 6.90341C22.856 6.50568 23.0833 6.19602 23.3674 5.97443C23.6543 5.75 23.9668 5.59375 24.3049 5.50568C24.6458 5.41477 24.981 5.36932 25.3106 5.36932C25.5208 5.36932 25.7623 5.39489 26.035 5.44602C26.3106 5.49432 26.5762 5.59517 26.8319 5.74858C27.0904 5.90199 27.3049 6.13352 27.4753 6.44318C27.6458 6.75284 27.731 7.16761 27.731 7.6875V12H26.7253V11.1136H26.6742C26.606 11.2557 26.4924 11.4077 26.3333 11.5696C26.1742 11.7315 25.9626 11.8693 25.6984 11.983C25.4342 12.0966 25.1117 12.1534 24.731 12.1534ZM24.8844 11.25C25.2822 11.25 25.6174 11.1719 25.8901 11.0156C26.1657 10.8594 26.3731 10.6577 26.5123 10.4105C26.6543 10.1634 26.7253 9.90341 26.7253 9.63068V8.71023C26.6827 8.76136 26.589 8.80824 26.4441 8.85085C26.3021 8.89062 26.1373 8.92614 25.9498 8.95739C25.7651 8.9858 25.5847 9.01136 25.4086 9.03409C25.2353 9.05398 25.0947 9.07102 24.9867 9.08523C24.7253 9.11932 24.481 9.17472 24.2538 9.25142C24.0293 9.32528 23.8475 9.4375 23.7083 9.58807C23.5719 9.7358 23.5038 9.9375 23.5038 10.1932C23.5038 10.5426 23.633 10.8068 23.8915 10.9858C24.1529 11.1619 24.4839 11.25 24.8844 11.25ZM29.5666 12V5.45455H30.5382V6.44318H30.6064C30.7257 6.11932 30.9416 5.85653 31.2541 5.65483C31.5666 5.45312 31.9189 5.35227 32.3109 5.35227C32.3848 5.35227 32.4771 5.35369 32.5879 5.35653C32.6987 5.35937 32.7825 5.36364 32.8393 5.36932V6.39205C32.8052 6.38352 32.7271 6.37074 32.605 6.35369C32.4856 6.33381 32.3592 6.32386 32.2257 6.32386C31.9075 6.32386 31.6234 6.39062 31.3734 6.52415C31.1263 6.65483 30.9302 6.83665 30.7854 7.0696C30.6433 7.29972 30.5723 7.5625 30.5723 7.85795V12H29.5666ZM35.0371 8.0625V12H34.0315V5.45455H35.003V6.47727H35.0883C35.2417 6.14489 35.4746 5.87784 35.7871 5.67614C36.0996 5.47159 36.503 5.36932 36.9974 5.36932C37.4405 5.36932 37.8283 5.46023 38.1607 5.64205C38.4931 5.82102 38.7516 6.09375 38.9363 6.46023C39.1209 6.82386 39.2133 7.28409 39.2133 7.84091V12H38.2076V7.90909C38.2076 7.39489 38.0741 6.99432 37.807 6.70739C37.54 6.41761 37.1735 6.27273 36.7076 6.27273C36.3866 6.27273 36.0996 6.34233 35.8468 6.48153C35.5968 6.62074 35.3994 6.82386 35.2545 7.09091C35.1096 7.35795 35.0371 7.68182 35.0371 8.0625ZM45.6192 3.27273V12H44.5623V3.27273H45.6192ZM48.6074 8.0625V12H47.6018V5.45455H48.5734V6.47727H48.6586C48.812 6.14489 49.0449 5.87784 49.3574 5.67614C49.6699 5.47159 50.0734 5.36932 50.5677 5.36932C51.0109 5.36932 51.3986 5.46023 51.731 5.64205C52.0634 5.82102 52.3219 6.09375 52.5066 6.46023C52.6913 6.82386 52.7836 7.28409 52.7836 7.84091V12H51.7779V7.90909C51.7779 7.39489 51.6444 6.99432 51.3773 6.70739C51.1103 6.41761 50.7438 6.27273 50.2779 6.27273C49.9569 6.27273 49.6699 6.34233 49.4171 6.48153C49.1671 6.62074 48.9697 6.82386 48.8248 7.09091C48.6799 7.35795 48.6074 7.68182 48.6074 8.0625ZM57.9963 5.45455H59.002V12.4773C59.002 12.8807 58.9324 13.2301 58.7932 13.5256C58.6568 13.821 58.4494 14.0497 58.171 14.2116C57.8954 14.3736 57.5474 14.4545 57.127 14.4545C57.0929 14.4545 57.0588 14.4545 57.0247 14.4545C56.9906 14.4545 56.9565 14.4545 56.9224 14.4545V13.517C56.9565 13.517 56.9878 13.517 57.0162 13.517C57.0446 13.517 57.0758 13.517 57.1099 13.517C57.4168 13.517 57.6412 13.4261 57.7832 13.2443C57.9253 13.0653 57.9963 12.8097 57.9963 12.4773V5.45455ZM58.4906 4.36364C58.2946 4.36364 58.1256 4.29688 57.9835 4.16335C57.8443 4.02983 57.7747 3.86932 57.7747 3.68182C57.7747 3.49432 57.8443 3.33381 57.9835 3.20028C58.1256 3.06676 58.2946 3 58.4906 3C58.6866 3 58.8543 3.06676 58.9935 3.20028C59.1355 3.33381 59.2065 3.49432 59.2065 3.68182C59.2065 3.86932 59.1355 4.02983 58.9935 4.16335C58.8543 4.29688 58.6866 4.36364 58.4906 4.36364ZM64.969 9.32386V5.45455H65.9746V12H64.969V10.892H64.9008C64.7474 11.2244 64.5087 11.5071 64.1849 11.7401C63.861 11.9702 63.4519 12.0852 62.9576 12.0852C62.5485 12.0852 62.1849 11.9957 61.8667 11.8168C61.5485 11.6349 61.2985 11.3622 61.1167 10.9986C60.9349 10.6321 60.844 10.1705 60.844 9.61364V5.45455H61.8496V9.54545C61.8496 10.0227 61.9832 10.4034 62.2502 10.6875C62.5201 10.9716 62.8638 11.1136 63.2815 11.1136C63.5315 11.1136 63.7857 11.0497 64.0442 10.9219C64.3056 10.794 64.5244 10.598 64.7005 10.3338C64.8795 10.0696 64.969 9.73295 64.969 9.32386ZM72.453 6.92045L71.5496 7.17614C71.4927 7.02557 71.4089 6.87926 71.2981 6.73722C71.1902 6.59233 71.0425 6.47301 70.855 6.37926C70.6675 6.28551 70.4274 6.23864 70.1348 6.23864C69.7342 6.23864 69.4004 6.33097 69.1334 6.51562C68.8692 6.69744 68.7371 6.92898 68.7371 7.21023C68.7371 7.46023 68.828 7.65767 69.0098 7.80256C69.1916 7.94744 69.4757 8.06818 69.8621 8.16477L70.8337 8.40341C71.4189 8.54545 71.855 8.76278 72.1419 9.0554C72.4288 9.34517 72.5723 9.71875 72.5723 10.1761C72.5723 10.5511 72.4643 10.8864 72.2484 11.1818C72.0354 11.4773 71.7371 11.7102 71.3535 11.8807C70.97 12.0511 70.524 12.1364 70.0155 12.1364C69.3479 12.1364 68.7953 11.9915 68.3578 11.7017C67.9203 11.4119 67.6433 10.9886 67.5268 10.4318L68.4814 10.1932C68.5723 10.5455 68.7442 10.8097 68.997 10.9858C69.2527 11.1619 69.5865 11.25 69.9984 11.25C70.4672 11.25 70.8393 11.1506 71.1149 10.9517C71.3933 10.75 71.5325 10.5085 71.5325 10.2273C71.5325 10 71.453 9.80966 71.2939 9.65625C71.1348 9.5 70.8905 9.38352 70.5609 9.30682L69.47 9.05114C68.8706 8.90909 68.4302 8.68892 68.149 8.39062C67.8706 8.08949 67.7314 7.71307 67.7314 7.26136C67.7314 6.89205 67.8351 6.56534 68.0425 6.28125C68.2527 5.99716 68.5382 5.77415 68.899 5.61222C69.2626 5.45028 69.6746 5.36932 70.1348 5.36932C70.7825 5.36932 71.291 5.51136 71.6604 5.79545C72.0325 6.07955 72.2967 6.45455 72.453 6.92045ZM76.9327 5.45455V6.30682H73.5407V5.45455H76.9327ZM74.5293 3.88636H75.535V10.125C75.535 10.4091 75.5762 10.6222 75.6586 10.7642C75.7438 10.9034 75.8518 10.9972 75.9824 11.0455C76.116 11.0909 76.2566 11.1136 76.4043 11.1136C76.5151 11.1136 76.606 11.108 76.6771 11.0966C76.7481 11.0824 76.8049 11.071 76.8475 11.0625L77.0521 11.9659C76.9839 11.9915 76.8887 12.017 76.7665 12.0426C76.6444 12.071 76.4896 12.0852 76.3021 12.0852C76.018 12.0852 75.7396 12.0241 75.4668 11.902C75.1969 11.7798 74.9725 11.5938 74.7935 11.3438C74.6174 11.0938 74.5293 10.7784 74.5293 10.3977V3.88636ZM18.6527 27.1193C18.0902 27.1193 17.5888 27.0227 17.1485 26.8295C16.711 26.6364 16.363 26.3679 16.1044 26.0241C15.8487 25.6776 15.7095 25.2756 15.6868 24.8182H16.7607C16.7834 25.0994 16.88 25.3423 17.0505 25.5469C17.2209 25.7486 17.4439 25.9048 17.7195 26.0156C17.9951 26.1264 18.3005 26.1818 18.6357 26.1818C19.0107 26.1818 19.3431 26.1165 19.6328 25.9858C19.9226 25.8551 20.1499 25.6733 20.3147 25.4403C20.4794 25.2074 20.5618 24.9375 20.5618 24.6307C20.5618 24.3097 20.4823 24.027 20.3232 23.7827C20.1641 23.5355 19.9311 23.3423 19.6243 23.2031C19.3175 23.0639 18.9425 22.9943 18.4993 22.9943H17.8005V22.0568H18.4993C18.8459 22.0568 19.1499 21.9943 19.4112 21.8693C19.6755 21.7443 19.8814 21.5682 20.0291 21.3409C20.1797 21.1136 20.255 20.8466 20.255 20.5398C20.255 20.2443 20.1897 19.9872 20.059 19.7685C19.9283 19.5497 19.7436 19.3793 19.505 19.2571C19.2692 19.1349 18.9908 19.0739 18.6698 19.0739C18.3686 19.0739 18.0845 19.1293 17.8175 19.2401C17.5533 19.348 17.3374 19.5057 17.1698 19.7131C17.0022 19.9176 16.9112 20.1648 16.897 20.4545H15.8743C15.8914 19.9972 16.0291 19.5966 16.2877 19.2528C16.5462 18.9062 16.8843 18.6364 17.3019 18.4432C17.7223 18.25 18.184 18.1534 18.6868 18.1534C19.2266 18.1534 19.6897 18.2628 20.076 18.4815C20.4624 18.6974 20.7593 18.983 20.9666 19.3381C21.174 19.6932 21.2777 20.0767 21.2777 20.4886C21.2777 20.9801 21.1485 21.3991 20.8899 21.7457C20.6343 22.0923 20.2862 22.3324 19.8459 22.4659V22.5341C20.397 22.625 20.8274 22.8594 21.1371 23.2372C21.4468 23.6122 21.6016 24.0767 21.6016 24.6307C21.6016 25.1051 21.4723 25.5312 21.2138 25.9091C20.9581 26.2841 20.6087 26.5795 20.1655 26.7955C19.7223 27.0114 19.2181 27.1193 18.6527 27.1193ZM26.8729 18.2727H28.1343L31.1002 25.517H31.2024L34.1684 18.2727H35.4297V27H34.4411V20.3693H34.3559L31.6286 27H30.674L27.9468 20.3693H27.8615V27H26.8729V18.2727ZM37.4123 27V20.4545H38.418V27H37.4123ZM37.9237 19.3636C37.7277 19.3636 37.5586 19.2969 37.4166 19.1634C37.2774 19.0298 37.2078 18.8693 37.2078 18.6818C37.2078 18.4943 37.2774 18.3338 37.4166 18.2003C37.5586 18.0668 37.7277 18 37.9237 18C38.1197 18 38.2873 18.0668 38.4265 18.2003C38.5686 18.3338 38.6396 18.4943 38.6396 18.6818C38.6396 18.8693 38.5686 19.0298 38.4265 19.1634C38.2873 19.2969 38.1197 19.3636 37.9237 19.3636ZM41.2657 23.0625V27H40.26V20.4545H41.2316V21.4773H41.3168C41.4702 21.1449 41.7032 20.8778 42.0157 20.6761C42.3282 20.4716 42.7316 20.3693 43.2259 20.3693C43.6691 20.3693 44.0568 20.4602 44.3892 20.642C44.7216 20.821 44.9801 21.0938 45.1648 21.4602C45.3495 21.8239 45.4418 22.2841 45.4418 22.8409V27H44.4361V22.9091C44.4361 22.3949 44.3026 21.9943 44.0355 21.7074C43.7685 21.4176 43.402 21.2727 42.9361 21.2727C42.6151 21.2727 42.3282 21.3423 42.0753 21.4815C41.8253 21.6207 41.6279 21.8239 41.483 22.0909C41.3381 22.358 41.2657 22.6818 41.2657 23.0625ZM51.4045 24.3239V20.4545H52.4102V27H51.4045V25.892H51.3363C51.1829 26.2244 50.9443 26.5071 50.6204 26.7401C50.2965 26.9702 49.8875 27.0852 49.3931 27.0852C48.984 27.0852 48.6204 26.9957 48.3022 26.8168C47.984 26.6349 47.734 26.3622 47.5522 25.9986C47.3704 25.6321 47.2795 25.1705 47.2795 24.6136V20.4545H48.2852V24.5455C48.2852 25.0227 48.4187 25.4034 48.6858 25.6875C48.9556 25.9716 49.2994 26.1136 49.717 26.1136C49.967 26.1136 50.2213 26.0497 50.4798 25.9219C50.7411 25.794 50.9599 25.598 51.136 25.3338C51.315 25.0696 51.4045 24.733 51.4045 24.3239ZM57.0987 20.4545V21.3068H53.7067V20.4545H57.0987ZM54.6953 18.8864H55.701V25.125C55.701 25.4091 55.7422 25.6222 55.8246 25.7642C55.9098 25.9034 56.0178 25.9972 56.1485 26.0455C56.282 26.0909 56.4226 26.1136 56.5703 26.1136C56.6811 26.1136 56.772 26.108 56.8431 26.0966C56.9141 26.0824 56.9709 26.071 57.0135 26.0625L57.2181 26.9659C57.1499 26.9915 57.0547 27.017 56.9326 27.0426C56.8104 27.071 56.6556 27.0852 56.4681 27.0852C56.184 27.0852 55.9056 27.0241 55.6328 26.902C55.363 26.7798 55.1385 26.5938 54.9595 26.3438C54.7834 26.0938 54.6953 25.7784 54.6953 25.3977V18.8864ZM61.2855 27.1364C60.6549 27.1364 60.1108 26.9972 59.6534 26.7188C59.1989 26.4375 58.848 26.0455 58.6009 25.5426C58.3566 25.0369 58.2344 24.4489 58.2344 23.7784C58.2344 23.108 58.3566 22.517 58.6009 22.0057C58.848 21.4915 59.1918 21.0909 59.6321 20.804C60.0753 20.5142 60.5924 20.3693 61.1833 20.3693C61.5242 20.3693 61.8608 20.4261 62.1932 20.5398C62.5256 20.6534 62.8282 20.8381 63.1009 21.0938C63.3736 21.3466 63.5909 21.6818 63.7529 22.0994C63.9148 22.517 63.9958 23.0312 63.9958 23.642V24.0682H58.9503V23.1989H62.973C62.973 22.8295 62.8992 22.5 62.7514 22.2102C62.6066 21.9205 62.3992 21.6918 62.1293 21.5241C61.8622 21.3565 61.5469 21.2727 61.1833 21.2727C60.7827 21.2727 60.4361 21.3722 60.1435 21.571C59.8537 21.767 59.6307 22.0227 59.4745 22.3381C59.3182 22.6534 59.2401 22.9915 59.2401 23.3523V23.9318C59.2401 24.4261 59.3253 24.8452 59.4958 25.1889C59.6691 25.5298 59.9091 25.7898 60.2159 25.9688C60.5228 26.1449 60.8793 26.233 61.2855 26.233C61.5497 26.233 61.7884 26.196 62.0014 26.1222C62.2174 26.0455 62.4034 25.9318 62.5597 25.7812C62.7159 25.6278 62.8367 25.4375 62.9219 25.2102L63.8935 25.483C63.7912 25.8125 63.6193 26.1023 63.3779 26.3523C63.1364 26.5994 62.8381 26.7926 62.483 26.9318C62.1279 27.0682 61.7287 27.1364 61.2855 27.1364ZM70.162 21.9205L69.2585 22.1761C69.2017 22.0256 69.1179 21.8793 69.0071 21.7372C68.8992 21.5923 68.7514 21.473 68.5639 21.3793C68.3764 21.2855 68.1364 21.2386 67.8438 21.2386C67.4432 21.2386 67.1094 21.331 66.8424 21.5156C66.5782 21.6974 66.446 21.929 66.446 22.2102C66.446 22.4602 66.537 22.6577 66.7188 22.8026C66.9006 22.9474 67.1847 23.0682 67.571 23.1648L68.5426 23.4034C69.1279 23.5455 69.5639 23.7628 69.8509 24.0554C70.1378 24.3452 70.2813 24.7187 70.2813 25.1761C70.2813 25.5511 70.1733 25.8864 69.9574 26.1818C69.7443 26.4773 69.446 26.7102 69.0625 26.8807C68.679 27.0511 68.233 27.1364 67.7245 27.1364C67.0568 27.1364 66.5043 26.9915 66.0668 26.7017C65.6293 26.4119 65.3523 25.9886 65.2358 25.4318L66.1904 25.1932C66.2813 25.5455 66.4532 25.8097 66.706 25.9858C66.9617 26.1619 67.2955 26.25 67.7074 26.25C68.1762 26.25 68.5483 26.1506 68.8239 25.9517C69.1023 25.75 69.2415 25.5085 69.2415 25.2273C69.2415 25 69.162 24.8097 69.0029 24.6562C68.8438 24.5 68.5995 24.3835 68.2699 24.3068L67.179 24.0511C66.5796 23.9091 66.1392 23.6889 65.858 23.3906C65.5796 23.0895 65.4404 22.7131 65.4404 22.2614C65.4404 21.892 65.5441 21.5653 65.7514 21.2812C65.9617 20.9972 66.2472 20.7741 66.608 20.6122C66.9716 20.4503 67.3835 20.3693 67.8438 20.3693C68.4915 20.3693 69 20.5114 69.3693 20.7955C69.7415 21.0795 70.0057 21.4545 70.162 21.9205Z" fill="white"/>
<defs>
<clipPath id="clip0_6_15">
<rect width="64.0102" height="60.3791" fill="white" transform="translate(32.9898 32.6208)"/>
</clipPath>
</defs>
</svg>
